<?xml version="1.0" encoding="utf-8"?>
<!-- Generator: Adobe Illustrator 16.0.0, SVG Export Plug-In . SVG Version: 6.00 Build 0)  -->
<!DOCTYPE svg PUBLIC "-//W3C//DTD SVG 1.1//EN" "http://www.w3.org/Graphics/SVG/1.1/DTD/svg11.dtd">
<svg version="1.1" id="Ebene_1" xmlns="http://www.w3.org/2000/svg" xmlns:xlink="http://www.w3.org/1999/xlink" x="0px" y="0px"
	 width="392px" height="134.33px" viewBox="0 0 392 134.33" enable-background="new 0 0 392 134.33" xml:space="preserve">
<g>
	<path d="M67,25.328c-16.772,0-31.274,9.886-38,24.134v-24.46h-4v42.326c0,23.159,18.841,42,42,42s42-18.841,42-42
		S90.158,25.328,67,25.328z M67,105.328c-20.953,0-38-17.047-38-38s17.047-38,38-38s38,17.047,38,38S87.953,105.328,67,105.328z"/>
	<path d="M153,25.328c-23.159,0-42,18.841-42,42s18.841,42,42,42v-4c-20.282,0-36.904-15.974-37.948-36H195v-2
		C195,44.169,176.158,25.328,153,25.328z M115.051,65.328c1.044-20.026,17.667-36,37.948-36s36.904,15.974,37.948,36H115.051z"/>
	<path d="M239,25.328c-23.159,0-42,18.841-42,42h0v41.674h4v-23.81c6.726,14.249,21.228,24.135,38.001,24.135
		c23.159,0,42-18.841,42-42S262.16,25.328,239,25.328z M239,105.328c-20.954,0-38-17.047-38-38s17.047-38,38-38
		c20.953,0,38,17.047,38,38S259.954,105.328,239,105.328z"/>
	<path d="M325,25.328c-23.159,0-42,18.841-42,42v41.674h4V85.193c6.726,14.248,21.228,24.134,38,24.134c23.159,0,42-18.841,42-42
		S348.16,25.328,325,25.328z M325,105.328c-20.953,0-38-17.047-38-38s17.047-38,38-38s38,17.047,38,38S345.954,105.328,325,105.328z
		"/>
</g>
</svg>
